<?xml version="1.0" encoding="UTF-8"?>
<svg xmlns="http://www.w3.org/2000/svg" id="Logo" version="1.1" viewBox="0 0 198.3 117.4">
  <g>
    <path d="M132.7,28.8c-.5-.3-.9-.4-1.5-.4-1.1,0-2.3.6-3.6,1.7l-.4.3h.5c1.5-.4,2.7-.1,3.6.7,1.4,1.2,2.5,4,3,8,.2,1.5.2,2.7.3,3.4v.2c0,.1,0,.2,0,.3h0c0,.2,0,.3.2.3s.2,0,.2-.2c0,0,0-.2,0-.4v-.5c0-.4,0-.8.1-1.3v-.3c.1-2.3.3-10.1-2.4-11.7" fill="#5bbbb7"></path>
    <path d="M138.2,35.3c0,0,.1,0,.2-.1,1.4-5.6,3.1-9.2,4.8-9.9.7-.3,1.3-.2,2,.2l.4.3-.2-.4c-.4-.7-1.7-2.3-3.1-2.3s-.7.1-1.1.4c-1.4,1-2.5,4.6-2.9,9.9,0,.2,0,.3,0,.4,0,.2,0,.3,0,.6,0,.3,0,.7,0,.9,0,0,0,0,0,.1,0,0,0,0,.1,0" fill="#5bbbb7"></path>
    <path d="M149,35.1c-1.1-1.3-2.4-2.5-3.9-2.5-3,0-5.4,3.1-7.1,9.4-1.5,5.6-2.1,10.7-2.2,12.1,0,.3,0,.6,0,.8v.2c0,0,0,0,0,.1,0,0,0,0,.1,0,0,0,.2,0,.2-.1,0-.2,0-.5.2-.8v-.2c.9-4.6,2.2-9.2,3.7-12.6,1.9-4.2,4.4-6.5,7.3-6.5s1.1,0,1.7.2h.4c0,.1-.3-.2-.3-.2Z" fill="#5bbbb7"></path>
  </g>
  <g>
    <path d="M34.2,32.2c5.3,0,8,2.9,8,2.9l-1.5,2.3s-2.6-2.4-6.4-2.4-8.2,3.8-8.2,8.4,3.3,8.7,8.2,8.7,6.8-2.9,6.8-2.9l1.7,2.2s-3,3.5-8.6,3.5-11.3-5.1-11.3-11.5,4.8-11.3,11.2-11.3Z" fill="#5e2750"></path>
    <path d="M53.9,44.8h.7v-.3c0-2.6-1.5-3.5-3.5-3.5s-4.4,1.5-4.4,1.5l-1.3-2.2s2.3-1.9,5.9-1.9,6.3,2.2,6.3,6.2v10h-2.8v-1.5c0-.7,0-1.3,0-1.3h0s-1.3,3.1-5.1,3.1-5.4-1.7-5.4-4.8c0-5.2,6.9-5.4,9.5-5.4ZM50.4,52.6c2.6,0,4.2-2.7,4.2-5v-.5h-.8c-2.3,0-6.4.2-6.4,3s1,2.5,3,2.5Z" fill="#5e2750"></path>
    <path d="M61.1,38.8h2.9v2.1c0,.6,0,1.2,0,1.2h0c.6-1.4,2.5-3.6,5.9-3.6s5.4,2,5.4,6.1v10.1h-3v-9.5c0-2.2-.5-4-3-4s-4.4,1.6-5,3.9c-.2.6-.2,1.3-.2,2.1v7.4h-3v-15.8Z" fill="#5e2750"></path>
    <path d="M87.2,44.8h.7v-.3c0-2.6-1.5-3.5-3.5-3.5s-4.4,1.5-4.4,1.5l-1.3-2.2s2.3-1.9,5.9-1.9,6.3,2.2,6.3,6.2v10h-2.8v-1.5c0-.7,0-1.3,0-1.3h0s-1.3,3.1-5.1,3.1-5.4-1.7-5.4-4.8c0-5.2,6.9-5.4,9.5-5.4ZM83.7,52.6c2.6,0,4.2-2.7,4.2-5v-.5h-.8c-2.3,0-6.4.2-6.4,3s1,2.5,3,2.5Z" fill="#5e2750"></path>
    <path d="M100.7,38.5c3.7,0,4.9,2.5,4.9,2.5h0s0-.5,0-1.1v-7.3h3v22.1h-2.9v-1.5c0-.6,0-1.1,0-1.1h0s-1.3,2.9-5.2,2.9-7-3.4-7-8.3,3-8.3,7.2-8.3ZM101.1,52.4c2.3,0,4.6-1.7,4.6-5.7s-1.5-5.6-4.5-5.6-4.6,2.1-4.6,5.7,1.8,5.7,4.5,5.7Z" fill="#5e2750"></path>
    <path d="M120.6,44.8h.7v-.3c0-2.6-1.5-3.5-3.5-3.5s-4.4,1.5-4.4,1.5l-1.3-2.2s2.3-1.9,5.9-1.9,6.3,2.2,6.3,6.2v10h-2.8v-1.5c0-.7,0-1.3,0-1.3h0s-1.3,3.1-5.1,3.1-5.4-1.7-5.4-4.8c0-5.2,6.9-5.4,9.5-5.4ZM117.1,52.6c2.6,0,4.2-2.7,4.2-5v-.5h-.8c-2.3,0-6.4.2-6.4,3s1,2.5,3,2.5Z" fill="#5e2750"></path>
  </g>
  <g>
    <path d="M25.8,86.4h4.5v1.2h-3.1v2.2h2.6v1.2h-2.6v3.2h-1.4v-7.8Z" fill="#252525"></path>
    <path d="M30.9,88.6h1.3v1c0,.2,0,.4,0,.4h0c.3-.8.9-1.4,1.8-1.4s.3,0,.3,0v1.4s-.1,0-.3,0c-.6,0-1.3.3-1.5,1.2,0,.3-.1.6-.1.9v2.2h-1.4v-5.6Z" fill="#252525"></path>
    <path d="M37.8,88.5c1.7,0,3.1,1.2,3.1,2.9s-1.4,2.9-3.1,2.9-3.1-1.2-3.1-2.9,1.4-2.9,3.1-2.9ZM37.8,93.2c.9,0,1.7-.7,1.7-1.7s-.8-1.7-1.7-1.7-1.7.7-1.7,1.7.8,1.7,1.7,1.7Z" fill="#252525"></path>
    <path d="M41.9,88.6h1.3v.6c0,.2,0,.4,0,.4h0c.3-.6.9-1.2,1.8-1.2s1.4.4,1.6,1.2h0c.3-.6,1-1.2,1.9-1.2s1.8.7,1.8,2.1v3.6h-1.4v-3.3c0-.6-.1-1.1-.8-1.1s-1.2.6-1.4,1.3c0,.2,0,.5,0,.7v2.5h-1.4v-3.3c0-.6,0-1.1-.8-1.1s-1.2.6-1.4,1.3c0,.2,0,.5,0,.7v2.5h-1.4v-5.6Z" fill="#252525"></path>
    <path d="M54.6,86.4h4.5v1.2h-3.1v2.2h2.6v1.2h-2.6v3.2h-1.4v-7.8Z" fill="#252525"></path>
    <path d="M62.6,88.5c1.7,0,3.1,1.2,3.1,2.9s-1.4,2.9-3.1,2.9-3.1-1.2-3.1-2.9,1.4-2.9,3.1-2.9ZM62.6,93.2c.9,0,1.7-.7,1.7-1.7s-.8-1.7-1.7-1.7-1.7.7-1.7,1.7.8,1.7,1.7,1.7Z" fill="#252525"></path>
    <path d="M66.7,88.6h1.3v1c0,.2,0,.4,0,.4h0c.3-.8.9-1.4,1.8-1.4s.3,0,.3,0v1.4s-.1,0-.3,0c-.6,0-1.3.3-1.5,1.2,0,.3-.1.6-.1.9v2.2h-1.4v-5.6Z" fill="#252525"></path>
    <path d="M73.4,88.5c1.6,0,2.5,1.2,2.5,2.7s0,.5,0,.5h-3.9c0,1,.8,1.5,1.7,1.5s1.6-.6,1.6-.6l.5,1s-.9.8-2.3.8-3-1.3-3-2.9,1.2-2.9,2.8-2.9ZM74.4,90.7c0-.8-.5-1.2-1.1-1.2s-1.2.4-1.3,1.2h2.5Z" fill="#252525"></path>
    <path d="M77.1,92.6s.6.6,1.5.6.7-.2.7-.5c0-.8-2.7-.7-2.7-2.5s.9-1.7,2.1-1.7,1.9.6,1.9.6l-.5,1s-.5-.5-1.4-.5-.7.2-.7.5c0,.8,2.7.7,2.7,2.5s-.8,1.7-2.1,1.7-2.2-.8-2.2-.8l.6-1Z" fill="#252525"></path>
    <path d="M82,89.8h-.7v-1.1h.8v-1.6h1.4v1.6h1.3v1.1h-1.3v2.2c0,.9.7,1.1,1.1,1.1s.3,0,.3,0v1.2s-.2,0-.4,0c-.8,0-2.3-.2-2.3-2.1v-2.4Z" fill="#252525"></path>
    <path d="M88.1,88.5c1.6,0,2.5,1.2,2.5,2.7s0,.5,0,.5h-3.9c0,1,.8,1.5,1.7,1.5s1.6-.6,1.6-.6l.5,1s-.9.8-2.3.8-3-1.3-3-2.9,1.2-2.9,2.8-2.9ZM89.2,90.7c0-.8-.5-1.2-1.1-1.2s-1.2.4-1.3,1.2h2.5Z" fill="#252525"></path>
    <path d="M91.7,88.6h1.3v1c0,.2,0,.4,0,.4h0c.3-.8.9-1.4,1.8-1.4s.3,0,.3,0v1.4s-.1,0-.3,0c-.6,0-1.3.3-1.5,1.2,0,.3-.1.6-.1.9v2.2h-1.4v-5.6Z" fill="#252525"></path>
    <path d="M96.1,92.6s.6.6,1.5.6.7-.2.7-.5c0-.8-2.7-.7-2.7-2.5s.9-1.7,2.1-1.7,1.9.6,1.9.6l-.5,1s-.5-.5-1.4-.5-.7.2-.7.5c0,.8,2.7.7,2.7,2.5s-.8,1.7-2.1,1.7-2.2-.8-2.2-.8l.6-1Z" fill="#252525"></path>
    <path d="M103.6,86.4h4.5v1.2h-3.1v2.2h2.6v1.2h-2.6v3.2h-1.4v-7.8Z" fill="#252525"></path>
    <path d="M109,86.4h1.4v1.2h-1.4v-1.2ZM109,88.6h1.4v5.6h-1.4v-5.6Z" fill="#252525"></path>
    <path d="M111.8,88.6h1.3v.6c0,.2,0,.4,0,.4h0c.2-.5.9-1.2,2-1.2s1.9.6,1.9,2.1v3.6h-1.4v-3.3c0-.7-.2-1.1-.9-1.1s-1.3.5-1.5,1.1c0,.2,0,.5,0,.7v2.6h-1.4v-5.6Z" fill="#252525"></path>
    <path d="M121.3,90.7h.2c0-.8-.5-1.1-1.1-1.1s-1.5.5-1.5.5l-.5-1s.9-.7,2.2-.7,2.3.8,2.3,2.2v3.5h-1.3v-.5c0-.2,0-.4,0-.4h0s-.4,1-1.7,1-1.9-.6-1.9-1.7c0-1.8,2.4-1.9,3.3-1.9ZM120.2,93.3c.7,0,1.3-.8,1.3-1.5h0c0-.1-.2-.1-.2-.1-.7,0-1.9,0-1.9.9s.3.7.8.7Z" fill="#252525"></path>
    <path d="M124.2,88.6h1.3v.6c0,.2,0,.4,0,.4h0c.2-.5.9-1.2,2-1.2s1.9.6,1.9,2.1v3.6h-1.4v-3.3c0-.7-.2-1.1-.9-1.1s-1.3.5-1.5,1.1c0,.2,0,.5,0,.7v2.6h-1.4v-5.6Z" fill="#252525"></path>
    <path d="M133.5,88.5c1.5,0,2.2.8,2.2.8l-.6,1s-.6-.6-1.5-.6-1.7.8-1.7,1.7.7,1.8,1.7,1.8,1.7-.7,1.7-.7l.5,1s-.8.9-2.3.9-3-1.3-3-2.9,1.2-2.9,3-2.9Z" fill="#252525"></path>
    <path d="M136.7,86.4h1.4v1.2h-1.4v-1.2ZM136.7,88.6h1.4v5.6h-1.4v-5.6Z" fill="#252525"></path>
    <path d="M142.4,90.7h.2c0-.8-.5-1.1-1.1-1.1s-1.5.5-1.5.5l-.5-1s.9-.7,2.2-.7,2.3.8,2.3,2.2v3.5h-1.3v-.5c0-.2,0-.4,0-.4h0s-.4,1-1.7,1-1.9-.6-1.9-1.7c0-1.8,2.4-1.9,3.3-1.9ZM141.3,93.3c.7,0,1.3-.8,1.3-1.5h0c0-.1-.2-.1-.2-.1-.7,0-1.9,0-1.9.9s.3.7.8.7Z" fill="#252525"></path>
    <path d="M145.2,86.4h1.4v5.9c0,.6.2.8.6.8s.2,0,.2,0v1.2s-.2,0-.4,0c-.8,0-1.7-.2-1.7-1.8v-6.1Z" fill="#252525"></path>
    <path d="M148.7,86.4h-1v-.3h2.4v.3h-1v2.5h-.4v-2.5ZM150.5,86.1h.3l.7,1.6c0,.1,0,.3,0,.3h0s0-.1,0-.3l.7-1.6h.3l.2,2.8h-.4l-.2-1.9c0,0,0-.2,0-.2h0l-.7,1.6h-.3l-.7-1.6h0s0,0,0,.2l-.2,1.9h-.4l.2-2.8Z" fill="#252525"></path>
  </g>
  <g>
    <path d="M25.7,61.5h5.5c2.8,0,4.9,1.8,4.9,4.8s-2,4.8-4.9,4.8h-3.9v6.2h-1.6v-15.8ZM31,69.7c2.1,0,3.5-1.3,3.5-3.4s-1.4-3.4-3.5-3.4h-3.7v6.8h3.7Z" fill="#5e2750"></path>
    <path d="M38,66h1.5v2c0,.5,0,.9,0,.9h0c.5-1.7,1.8-3,3.6-3s.6,0,.6,0v1.5s-.3,0-.6,0c-1.6,0-2.8,1.3-3.3,2.9-.2.7-.3,1.5-.3,2.2v4.8h-1.5v-11.3Z" fill="#5e2750"></path>
    <path d="M50.3,65.8c3.3,0,6,2.5,6,5.9s-2.7,6-6,6-6-2.6-6-6,2.7-5.9,6-5.9ZM50.3,76.2c2.4,0,4.4-2,4.4-4.6s-2-4.5-4.4-4.5-4.4,1.9-4.4,4.5,2,4.6,4.4,4.6Z" fill="#5e2750"></path>
    <path d="M58.7,67.4h-1.5v-1.3h1.5v-3.3h1.5v3.3h2.8v1.3h-2.8v5.6c0,2.7,1.7,3,2.5,3s.5,0,.5,0v1.4s-.2,0-.7,0c-1.3,0-3.9-.4-3.9-4.2v-5.8Z" fill="#5e2750"></path>
    <path d="M69.5,65.8c3.1,0,4.7,2.4,4.7,5.2s0,.8,0,.8h-8.7c0,2.9,2,4.5,4.4,4.5s3.4-1.4,3.4-1.4l.7,1.2s-1.6,1.6-4.2,1.6-5.9-2.4-5.9-5.9,2.5-5.9,5.6-5.9ZM72.6,70.5c0-2.4-1.5-3.5-3.2-3.5s-3.5,1.2-3.9,3.5h7.1Z" fill="#5e2750"></path>
    <path d="M81.8,65.8c2.8,0,4.1,1.6,4.1,1.6l-.8,1.1s-1.3-1.4-3.3-1.4-4.4,1.8-4.4,4.5,2,4.5,4.5,4.5,3.6-1.6,3.6-1.6l.7,1.2s-1.5,1.8-4.4,1.8-5.9-2.4-5.9-5.9,2.6-5.9,5.9-5.9Z" fill="#5e2750"></path>
    <path d="M89,67.4h-1.5v-1.3h1.5v-3.3h1.5v3.3h2.8v1.3h-2.8v5.6c0,2.7,1.7,3,2.5,3s.5,0,.5,0v1.4s-.2,0-.7,0c-1.3,0-3.9-.4-3.9-4.2v-5.8Z" fill="#5e2750"></path>
    <path d="M95.3,61.5h1.6v1.9h-1.6v-1.9ZM95.3,66h1.5v11.3h-1.5v-11.3Z" fill="#5e2750"></path>
    <path d="M105.1,65.8c3.3,0,6,2.5,6,5.9s-2.7,6-6,6-6-2.6-6-6,2.7-5.9,6-5.9ZM105.1,76.2c2.4,0,4.4-2,4.4-4.6s-2-4.5-4.4-4.5-4.4,1.9-4.4,4.5,2,4.6,4.4,4.6Z" fill="#5e2750"></path>
    <path d="M113.4,66h1.5v1.7c0,.5,0,.9,0,.9h0c.4-1,1.8-2.9,4.5-2.9s3.8,1.6,3.8,4.4v7.2h-1.5v-6.8c0-1.8-.3-3.4-2.5-3.4s-3.6,1.3-4.1,3.2c-.1.5-.2,1-.2,1.5v5.4h-1.5v-11.3Z" fill="#5e2750"></path>
    <path d="M132.5,61.5h5.5c2.8,0,4.9,1.8,4.9,4.8s-2,4.8-4.9,4.8h-3.9v6.2h-1.6v-15.8ZM137.7,69.7c2.1,0,3.5-1.3,3.5-3.4s-1.4-3.4-3.5-3.4h-3.7v6.8h3.7Z" fill="#5e2750"></path>
    <path d="M144.7,61.5h1.5v12.8c0,1.5.7,1.7,1.3,1.7s.4,0,.4,0v1.4s-.3,0-.6,0c-.9,0-2.6-.3-2.6-2.8v-13.1Z" fill="#5e2750"></path>
    <path d="M155.9,70.3h.6v-.3c0-2.2-1.2-2.9-2.8-2.9s-3.2,1.1-3.2,1.1l-.7-1.2s1.5-1.3,4-1.3,4.2,1.5,4.2,4.3v7.2h-1.5v-1.2c0-.6,0-.9,0-.9h0s-.9,2.5-3.8,2.5-3.8-1.1-3.8-3.4c0-3.8,5-3.9,6.9-3.9ZM153.1,76.3c2.2,0,3.5-2.3,3.5-4.2v-.5h-.7c-1.8,0-5.3,0-5.3,2.6s.8,2.1,2.5,2.1Z" fill="#5e2750"></path>
    <path d="M161,66h1.5v1.7c0,.5,0,.9,0,.9h0c.4-1,1.8-2.9,4.5-2.9s3.8,1.6,3.8,4.4v7.2h-1.5v-6.8c0-1.8-.3-3.4-2.5-3.4s-3.6,1.3-4.1,3.2c-.1.5-.2,1-.2,1.5v5.4h-1.5v-11.3Z" fill="#5e2750"></path>
    <path d="M173.3,61.5c1.2,0,2.1,1,2.1,2.1s-.9,2.2-2.1,2.2-2.1-.9-2.1-2.2.9-2.1,2.1-2.1ZM173.3,65.5c1,0,1.8-.8,1.8-1.8s-.8-1.8-1.8-1.8-1.7.8-1.7,1.8.8,1.8,1.7,1.8ZM172.6,62.5h.8c.4,0,.7.3.7.7s-.2.6-.4.6h0s0,0,0,.1l.4.9h-.4l-.5-.9h-.4v.9h-.3v-2.3ZM173.3,63.6c.2,0,.4-.2.4-.4s-.2-.4-.4-.4h-.4v.8h.4Z" fill="#5e2750"></path>
  </g>
</svg>
