<svg width="90" height="49" viewBox="0 0 90 49" fill="none" xmlns="http://www.w3.org/2000/svg">
<path d="M86.7589 28.7848C86.7925 28.7553 86.826 28.7217 86.8553 28.6923C86.9518 28.5998 87.044 28.5032 87.1363 28.4065C88.457 27.0154 89.1195 25.4562 89.1195 23.7162C89.1195 22.8631 88.9224 22.0435 88.5283 21.2534C88.1342 20.4633 87.5136 19.7866 86.6625 19.2151C85.3375 18.2989 83.9371 17.4541 82.457 16.6808C80.9769 15.9075 79.5765 15.1089 78.2516 14.2894C77.3375 13.659 76.6667 13.0286 76.2432 12.394C75.8197 11.7635 75.6059 11.1625 75.6059 10.5952C75.6059 9.71259 75.9287 9.06537 76.5744 8.6535C77.2201 8.24162 77.9539 8.03569 78.7715 8.03569C79.5891 8.03569 80.3606 8.25003 81.086 8.67451C81.8113 9.09899 82.218 9.7252 82.3145 10.5447V10.7339C82.3145 11.1752 82.1887 11.608 81.9371 12.0367C81.6855 12.4612 81.3836 12.8647 81.0398 13.2429L80.9434 13.5749C81.5723 14.0162 82.1971 14.3314 82.8092 14.5206C83.4256 14.7097 83.9958 14.8063 84.5325 14.8063C85.6017 14.8063 86.4864 14.4995 87.1782 13.8817C87.87 13.2639 88.218 12.4864 88.218 11.5366C88.218 11.1247 88.1551 10.7297 88.0294 10.3514C87.7778 9.59492 87.3208 8.95609 86.6583 8.43495C85.9958 7.91381 85.2579 7.49773 84.4361 7.17832C83.6185 6.86312 82.7505 6.63196 81.8365 6.49327C80.9224 6.35038 80.0713 6.27893 79.283 6.27893H78.6667C77.4382 6.34197 76.239 6.5395 75.0776 6.87152C73.912 7.20354 72.8637 7.69106 71.9371 8.33829C71.0063 8.98551 70.2683 9.78404 69.7149 10.7297C69.1656 11.6753 68.8889 12.7806 68.8889 14.0456C68.8889 15.1804 69.2285 16.2017 69.9036 17.1011C70.5828 18.0005 71.4382 18.8242 72.478 19.5639C73.5178 20.3078 74.6289 20.9928 75.8071 21.6232C76.9895 22.2537 78.1006 22.8631 79.1405 23.4472C80.1803 24.0314 81.0398 24.624 81.7149 25.225C82.1384 25.5991 82.5073 26.0614 82.6583 26.6161C82.805 27.1583 82.717 27.7467 82.4403 28.23C82.3857 28.3267 82.3228 28.4149 82.2558 28.5032C81.9413 28.8982 81.4885 29.1756 81.0063 29.3227C80.3648 29.5202 79.6562 29.5034 78.9979 29.4194C77.782 29.2681 76.8386 28.8184 76.1719 28.0661C75.501 27.318 75.1656 26.4564 75.1656 25.4772C75.1656 23.5691 73.5849 22.0225 71.6394 22.0225C69.8952 22.0225 68.4486 23.2665 68.1635 24.8972C68.13 25.0863 68.109 25.2839 68.109 25.4814C68.109 25.5024 68.109 25.5192 68.109 25.5402C68.109 25.5822 68.109 25.6201 68.109 25.6621C68.109 25.7462 68.1132 25.826 68.1174 25.9101C67.7946 26.1622 67.4424 26.3556 67.0482 26.4312C65.979 26.6371 65.4424 25.7167 65.2453 24.6955C65.2076 24.4895 65.2034 24.2332 65.1908 24.0062L65.2243 14.5668C65.2243 13.306 65.0356 12.1922 64.6583 11.2256C64.2809 10.2632 63.7694 9.47304 63.1237 8.85943C62.478 8.24583 61.7359 7.77932 60.9015 7.46411C60.0671 7.1489 59.2076 6.9892 58.327 6.9892C56.8763 6.9892 55.4465 7.38426 54.0252 8.17438C52.6457 8.94349 51.4591 10.0698 50.4696 11.5534C50.4361 11.6038 50.3606 11.5954 50.3396 11.5366C49.8323 10.0278 49.0105 8.90986 47.8826 8.17438C46.717 7.41788 45.4256 7.03963 44.0084 7.03963C42.6834 7.03963 41.3459 7.38006 39.9916 8.0567C38.6541 8.72494 37.4885 9.71259 36.4906 11.0112C36.4906 11.0112 36.3396 11.1962 36.3061 11.0323L36.2432 7.43469C36.2432 7.32542 36.1761 7.21195 36.0755 7.1489L35.6646 6.87993C35.5597 6.81268 35.434 6.80428 35.3417 6.85891C31.1027 9.40159 26.5954 9.16623 26.5954 9.16623C26.4444 9.15362 26.327 9.25449 26.3187 9.40159L26.2851 9.93114C26.2809 10.032 26.327 10.1371 26.4109 10.2127C26.9937 10.7086 28.8176 11.5198 28.7925 16.1807V30.1381C28.7925 30.8021 29.3291 31.3358 29.9874 31.3358H35.2495C35.9078 31.3358 36.4444 30.7979 36.4444 30.1381V15.3863C36.4444 14.819 36.587 14.239 36.8679 13.6548C37.153 13.0706 37.5136 12.5411 37.9539 12.0661C38.3941 11.5912 38.8763 11.2046 39.3962 10.902C39.9161 10.5994 40.4109 10.4523 40.8847 10.4523C41.5136 10.4523 42.0503 10.7465 42.4906 11.3307C42.9308 11.9148 43.153 12.9361 43.153 14.3903V30.1381C43.153 30.8021 43.6897 31.3358 44.348 31.3358H49.6101C50.2683 31.3358 50.805 30.7979 50.805 30.1381V15.2939C50.805 15.2939 50.805 15.2939 50.805 15.2897C50.8344 14.7223 50.9937 14.1507 51.2788 13.5833C51.5639 13.0118 51.9161 12.4906 52.3438 12.0157C52.7673 11.5408 53.2411 11.1625 53.761 10.8768C54.2809 10.591 54.7757 10.4481 55.2495 10.4481C55.8784 10.4481 56.4151 10.7423 56.8554 11.3265C57.2956 11.9106 57.5178 12.9319 57.5178 14.3861V24.0188C57.5178 24.0608 57.5514 24.0945 57.5933 24.0945H57.5178L57.5304 26.9229C57.5304 27.4525 57.5723 27.9736 57.6813 28.5368C58.0084 30.2431 58.9727 31.1551 60.3648 31.3358H61.4591C61.6226 31.319 61.7862 31.2938 61.9539 31.2644C63.3249 30.9996 64.6038 30.4659 65.7736 29.743C66.7589 29.1378 67.6646 28.3939 68.4864 27.5744C68.6038 27.8433 68.7463 28.0997 68.9182 28.3477C69.4633 29.1252 70.1971 29.785 71.1153 30.3188C72.0335 30.8525 73.0776 31.2518 74.2474 31.5082C75.4172 31.7687 76.6247 31.899 77.87 31.899C79.3669 31.899 80.8386 31.6931 82.2851 31.2812C83.1195 31.0458 83.8994 30.6592 84.6541 30.2431C85.0314 30.033 85.4046 29.8102 85.761 29.5665C86.1048 29.3311 86.4319 29.0747 86.7379 28.7848H86.7589Z" fill="#3D376A"/>
<path d="M60.3857 31.3401C60.7254 31.3821 61.0943 31.3821 61.4801 31.3401H60.3857Z" fill="#3D376A"/>
<path d="M24.2725 32.664C23.1279 31.1762 21.4298 29.9742 19.6562 29.6002C18.935 29.4489 18.2096 29.348 17.4885 29.2849C16.5912 29.2051 15.6981 29.1883 14.8176 29.2219C11.2117 29.3522 9.74423 29.3606 9.74423 29.3606C9.74423 29.3606 7.0566 29.5203 6.67086 28.1502C6.36478 27.0617 8.54507 26.406 9.45073 26.1833C10.7212 26.5363 12.088 26.7297 13.5094 26.7297C20.348 26.7297 25.891 22.2957 25.891 16.8237C25.891 13.6591 24.0335 10.8432 21.1488 9.0318C21.6394 8.39718 22.2222 7.73315 22.3606 7.59446C22.7296 7.22041 23.1614 6.8968 23.652 6.69506C24.2683 6.4429 24.6583 6.24957 25.6059 6.27479C26.2641 6.2916 26.8512 6.66144 27.4885 6.81694C28.4109 7.03969 29.3082 6.99766 30.1593 6.53956C31.304 5.92175 32.1342 4.56006 31.7778 3.03865C31.4801 1.77782 30.2977 0.819593 28.914 0.727132C27.5933 0.638874 26.3857 0.996109 25.2621 1.64754C22.6583 3.15633 20.9182 5.40061 19.8113 8.17444C19.7987 8.20806 19.7862 8.24588 19.7694 8.27951C17.9329 7.41794 15.7945 6.91781 13.5136 6.91781C6.67505 6.91781 1.13207 11.3517 1.13207 16.8237C1.13207 20.2658 3.32494 23.296 6.65828 25.0738C4.67086 25.5865 1.04821 26.9818 1.33333 30.3482C1.72327 34.9671 8.95597 35.3663 10.6205 35.4798C11.1321 35.5219 11.6478 35.5639 12.1635 35.6059C13.0398 35.6774 13.9245 35.7026 14.8008 35.9505C15.6059 36.1817 16.3941 36.5725 17.0231 37.1819C17.7358 37.8712 18.2809 38.842 18.348 39.7708C18.3774 40.1953 18.3312 40.624 18.2809 41.0359C18.2222 41.5066 18.1258 41.9689 17.9874 42.4102C17.8281 42.9271 17.6101 43.4189 17.3291 43.8685C17.0189 44.3561 16.6289 44.789 16.1635 45.1336C14.7128 46.2011 12.5241 46.4406 10.7799 45.0663C9.91614 44.3855 9.44235 43.3852 9.30398 42.385C9.25786 42.0614 9.24528 41.7419 9.26205 41.4267C9.26205 41.3469 9.27044 41.267 9.27882 41.1872C9.34172 40.5652 9.51782 39.9348 9.80293 39.3884C9.80293 39.3884 10.0922 38.7244 10.9727 38.3713C11.0818 38.3251 11.1405 38.2116 11.1195 38.0855L11.0734 37.7998L11.0524 37.6779C11.0273 37.5224 10.8889 37.3921 10.7338 37.3795L10.5618 37.3627C10.3145 37.3374 10.0797 37.308 9.84486 37.2786C5.41719 36.7112 3.48847 35.6017 2.79664 35.0722C2.57861 34.904 2.29769 34.9124 2.12998 35.0764C1.39203 35.8076 0.972743 36.8457 0.897272 37.9426C0.830186 38.8757 0.989515 39.8465 1.27463 40.7921C1.47589 41.4562 1.74004 42.1118 2.07966 42.738C2.26415 43.0742 2.47798 43.3894 2.70859 43.7004C2.94759 44.0199 3.21593 44.3267 3.50105 44.6082C4.68344 45.7808 6.16771 46.5667 7.68553 47.0795C8.03354 47.1971 8.38574 47.2854 8.73375 47.3863C10.4235 47.8696 12.1509 48.0671 13.8197 47.9705C14.9937 47.9032 16.1635 47.7015 17.2746 47.4241C18.6751 47.0711 20.0252 46.5457 21.195 45.7766C24.7924 43.4231 25.7275 40.1743 25.7275 40.1743C25.8365 39.7961 25.8952 39.3926 25.9371 38.9975C26.0377 38.0687 26.0126 37.1021 25.8281 36.1397C25.5933 34.9167 25.0818 33.7105 24.2767 32.664H24.2725ZM13.5094 8.95195C15.8742 8.95195 17.7904 12.4781 17.7904 16.8279C17.7904 21.1778 15.8742 24.7039 13.5094 24.7039C11.1447 24.7039 9.22851 21.1778 9.22851 16.8279C9.22851 12.4781 11.1447 8.95195 13.5094 8.95195Z" fill="#3D376A"/>
</svg>
