<svg id="Artboard_10_white" data-name="Artboard 10_white" xmlns="http://www.w3.org/2000/svg" width="118.815" height="36.224" viewBox="0 0 118.815 36.224">
  <rect id="Rectangle_52" data-name="Rectangle 52" width="6.705" height="23.38" transform="translate(0 0.305)" fill="#bdbfd6"/>
  <path id="Path_33" data-name="Path 33" d="M43.55.7V14.98L29.182.7H23V24.08h6.7V9.1L44.638,24.08H50.3V.7Z" transform="translate(-12.986 -0.395)" fill="#bdbfd6"/>
  <g id="Group_10" data-name="Group 10" transform="translate(0.74)">
    <path id="Path_34" data-name="Path 34" d="M116.95,7.01a25.914,25.914,0,0,0-10.1-2.177c-7.314,0-9.883,3.918-9.883,7.358,0,4.136,3.744,6.879,9.317,6.879a11.2,11.2,0,0,0,4.484-.827V15.5h-3.918V11.233h10.623v9.578c-2,1.829-7.01,3.135-11.363,3.135C96.7,23.946,90,18.982,90,11.973S96.7,0,106.283,0a28.6,28.6,0,0,1,10.623,1.916V7.01Z" transform="translate(-51.556)" fill="#bdbfd6"/>
    <path id="Path_35" data-name="Path 35" d="M178.65,24.08H158.1V.7h6.7V19.813H178.65Z" transform="translate(-90.007 -0.395)" fill="#bdbfd6"/>
    <path id="Path_36" data-name="Path 36" d="M228.9,24.08H209V.7h19.592V5.01H215.7V9.886h12.321V14.2H215.7v5.616H228.9Z" transform="translate(-118.746 -0.395)" fill="#bdbfd6"/>
    <rect id="Rectangle_53" data-name="Rectangle 53" width="1.698" height="5.878" transform="translate(0 30.259)" fill="#bdbfd6"/>
    <path id="Path_37" data-name="Path 37" d="M20.279,75.378H18.842L15.1,71.633v3.744H13.4V69.5h1.567l3.614,3.614V69.5h1.7Z" transform="translate(-8.306 -39.241)" fill="#bdbfd6"/>
    <path id="Path_38" data-name="Path 38" d="M42.418,70.588H39.936v4.789H38.282V70.588H35.8V69.5h6.618Z" transform="translate(-20.954 -39.241)" fill="#bdbfd6"/>
    <path id="Path_39" data-name="Path 39" d="M62.663,75.378H57.7V69.5h4.92v1.088H59.354v1.219h3.091V72.9H59.354v1.393h3.309Z" transform="translate(-33.319 -39.241)" fill="#bdbfd6"/>
    <path id="Path_40" data-name="Path 40" d="M79.348,69.5c1.393,0,2.22.827,2.22,1.7a1.535,1.535,0,0,1-1.176,1.437c.7.3.914,1,1.872,2.743H80.393c-.74-1.263-1-2.395-1.916-2.395H78v2.395H76.3V69.5ZM78,71.895h.914c.479,0,.914-.174.914-.653,0-.435-.348-.653-.958-.653H78Z" transform="translate(-43.821 -39.241)" fill="#bdbfd6"/>
    <path id="Path_41" data-name="Path 41" d="M102.935,75.378h-1.393L97.8,71.633v3.744H96.1V69.5h1.567l3.614,3.614V69.5h1.654Z" transform="translate(-55 -39.241)" fill="#bdbfd6"/>
    <path id="Path_42" data-name="Path 42" d="M125.606,75.378h-1.829l-.566-1.176h-3l-.522,1.176H117.9l2.743-5.878H122.6Zm-3.962-4.484-1,2.264h2.09C122.733,73.2,121.644,70.893,121.644,70.893Z" transform="translate(-67.309 -39.241)" fill="#bdbfd6"/>
    <path id="Path_43" data-name="Path 43" d="M144.474,70.588h-2.438v4.789h-1.7V70.588H137.9V69.5h6.574Z" transform="translate(-78.602 -39.241)" fill="#bdbfd6"/>
    <rect id="Rectangle_54" data-name="Rectangle 54" width="1.698" height="5.878" transform="translate(68.833 30.259)" fill="#bdbfd6"/>
    <path id="Path_44" data-name="Path 44" d="M174.775,75.408c-2.482,0-3.875-1.524-3.875-3,0-1.437,1.35-3,3.875-3s3.875,1.611,3.875,3c-.044,1.48-1.48,3-3.875,3m0-4.833c-1.306,0-2.133.7-2.133,1.785s.871,1.785,2.133,1.785,2.133-.7,2.133-1.785-.871-1.785-2.133-1.785" transform="translate(-97.234 -39.185)" fill="#bdbfd6"/>
    <path id="Path_45" data-name="Path 45" d="M202.635,75.378H201.2l-3.744-3.744v3.744H195.8V69.5h1.524l3.614,3.614V69.5h1.7Z" transform="translate(-111.293 -39.241)" fill="#bdbfd6"/>
    <path id="Path_46" data-name="Path 46" d="M225.206,75.378h-1.829l-.566-1.176h-3l-.522,1.176H217.5l2.743-5.878H222.2l3,5.878Zm-3.918-4.484-1,2.264h2.09Z" transform="translate(-123.545 -39.241)" fill="#bdbfd6"/>
    <path id="Path_47" data-name="Path 47" d="M246.481,75.378H241.3V69.5H243v4.789h3.483Z" transform="translate(-136.983 -39.241)" fill="#bdbfd6"/>
    <path id="Path_48" data-name="Path 48" d="M258.376,4.457V1.235H257.2V.8h2.873v.435h-1.219V4.457Z" transform="translate(-145.961 -0.452)" fill="#bdbfd6"/>
    <path id="Path_49" data-name="Path 49" d="M264.9,4.457V.8h.74l.871,2.569c.087.261.131.435.174.522.044-.131.087-.348.174-.566L267.73.8h.653V4.457H267.9V1.41l-1.045,3.048h-.435l-1.045-3.091V4.457Z" transform="translate(-150.309 -0.452)" fill="#bdbfd6"/>
  </g>
</svg>
