<?xml version="1.0" encoding="UTF-8"?>
<svg width="258" height="54" id="Layer_1" data-name="Layer 1" xmlns="http://www.w3.org/2000/svg" viewBox="0 0 257.32 54">
  <defs>
    <style>
      .cls-1 {
        fill: #fae07e;
      }

      .cls-2 {
        fill: #fff;
      }

      .cls-3 {
        fill: #193062;
      }
    </style>
  </defs>
  <g id="Layer_11" data-name="Layer 11">
    <g>
      <g>
        <rect class="cls-1" width="40.75" height="11.29"/>
        <rect class="cls-3" x="44.18" width="9.82" height="11.29"/>
        <rect class="cls-1" y="14.27" width="30.44" height="11.26"/>
        <rect class="cls-3" x="33.87" y="14.27" width="20.13" height="11.26"/>
        <rect class="cls-1" y="28.51" width="20.13" height="11.26"/>
        <rect class="cls-3" x="23.56" y="28.51" width="30.44" height="11.26"/>
        <rect class="cls-1" y="42.74" width="9.82" height="11.26"/>
        <rect class="cls-3" x="13.25" y="42.74" width="40.75" height="11.26"/>
      </g>
      <g>
        <path class="cls-3" d="M85.72,16.28h-9.07v-4.95h23.34v4.95h-9.12v26.42h-5.15v-26.42h0Z"/>
        <path class="cls-3" d="M98.79,20.61h4.85v3.93c.83-2.52,3.3-4.15,5.81-4.15.62,0,1.23.04,1.89.18v4.99c-.83-.27-1.54-.4-2.42-.4-2.77,0-5.28,2.34-5.28,6.76v10.78h-4.85v-22.09h0Z"/>
        <path class="cls-3" d="M115.11,20.61h4.85v12.42c0,3.53,1.59,5.7,4.4,5.7,3.13,0,5.37-2.52,5.37-7.25v-10.87h4.85v22.09h-4.85v-3c-1.28,2.21-3.61,3.45-6.43,3.45-5.07,0-8.19-3.67-8.19-9.32v-13.21h0Z"/>
        <path class="cls-3" d="M141.77,34.35c1.63,2.52,4.23,4.02,7.27,4.02s5.07-1.55,5.07-3.89c0-2.21-1.45-3.67-4.45-4.77l-3.44-1.24c-4.98-1.81-7.4-4.55-7.4-8.84,0-5.48,4.36-8.84,10.17-8.84,3.87,0,7.18,1.55,9.47,4.29l-3.57,3.49c-1.59-1.86-3.52-2.92-5.94-2.92-2.64,0-4.93,1.37-4.93,3.62s1.54,3.31,4.76,4.51l3.17,1.19c4.62,1.72,7.4,4.51,7.35,9.19,0,5.48-4.32,9.06-10.44,9.06-5.07,0-9.25-2.3-11.14-5.66l4.05-3.23h0Z"/>
        <path class="cls-3" d="M188.96,20.17c3.17,0,5.81,1.63,7.04,3.4v-2.96h4.85v22.09h-4.85v-2.96c-1.23,1.77-3.87,3.4-7.04,3.4-6.03,0-10.61-5.17-10.61-11.49s4.58-11.49,10.61-11.49ZM189.83,24.58c-3.92,0-6.56,3.09-6.56,7.07s2.64,7.07,6.56,7.07,6.56-3.09,6.56-7.07-2.64-7.07-6.56-7.07Z"/>
        <path class="cls-3" d="M215.47,52.38c-4.32,0-8.14-1.63-10.3-4.06l2.95-3.49c1.85,2.03,4.36,3.23,7.31,3.23,3.66,0,6.65-2.43,6.65-6.89v-2.03c-1.32,1.94-4.01,3.45-7.04,3.45-5.94,0-10.57-4.95-10.57-11.22s4.62-11.18,10.57-11.18c3.04,0,5.72,1.46,7.04,3.4v-2.96h4.85v20.59c0,7.69-4.93,11.18-11.45,11.18h0ZM215.91,38.1c3.74,0,6.56-2.83,6.56-6.76s-2.82-6.76-6.56-6.76-6.56,2.83-6.56,6.76,2.82,6.76,6.56,6.76h0Z"/>
        <path class="cls-3" d="M241.78,20.17c5.77,0,10.61,3.84,10.61,10.96,0,.49,0,.88-.04,1.59h-17.3c.22,3.62,3.13,6.01,6.78,6.01,3.08,0,5.15-1.41,6.3-3.36l3.7,2.65c-1.98,3.14-5.41,5.13-10.04,5.13-6.69,0-11.49-4.77-11.49-11.49s4.8-11.49,11.49-11.49h0ZM235.27,29.18h12.24c-.53-3.18-3.08-4.9-5.9-4.9s-5.68,1.63-6.34,4.9Z"/>
        <path class="cls-3" d="M160.27,20.61v4.33h4.58v10.65c0,4.99,3.3,7.33,7.53,7.33,1.5,0,2.64-.18,3.61-.49v-4.33c-.71.27-1.67.44-2.6.44-2.51,0-3.7-1.02-3.7-3.76v-9.85h6.3v-4.33h-6.3v-6.14h-4.85v2.77c0,1.85-1.5,3.36-3.35,3.36h-1.23,0Z"/>
      </g>
    </g>
  </g>
  <g id="Layer_2" data-name="Layer 2">
    <path class="cls-3" d="M253.86,19.93c-1.99,0-3.46-1.56-3.46-3.44s1.47-3.44,3.46-3.44,3.46,1.56,3.46,3.44-1.47,3.44-3.46,3.44"/>
    <path class="cls-2" d="M256.59,16.49c0-1.52-1.15-2.75-2.73-2.75s-2.73,1.23-2.73,2.75,1.15,2.75,2.73,2.75,2.73-1.23,2.73-2.75Z"/>
    <path class="cls-3" d="M254.7,17.03l.69,1.15h-.78l-.57-1h-.69v1h-.69v-3.44h1.41c.73,0,1.26.52,1.26,1.23,0,.49-.24.87-.63,1.06h0Z"/>
    <path class="cls-2" d="M253.34,16.54h.73c.35,0,.56-.26.56-.57s-.21-.55-.56-.55h-.73v1.13h0Z"/>
  </g>
</svg>