<svg id="logo-135e-right" xmlns="http://www.w3.org/2000/svg" width="98.134" height="112.894" xmlns:xlink="http://www.w3.org/1999/xlink" version="1.1" viewBox="0 0 98.134 112.894">
  <defs>
    <clipPath id="clippath">
      <circle cx="55.532" cy="43.766" r="41.268" fill="none"/>
    </clipPath>
  </defs>
  <path d="M29.515,53.056c-15.789,0-28.589,12.799-28.589,28.589s12.8,28.589,28.589,28.589,28.589-12.799,28.589-28.589-12.8-28.589-28.589-28.589ZM29.515,98.842c-9.498,0-17.197-7.699-17.197-17.197s7.699-17.197,17.197-17.197,17.197,7.699,17.197,17.197-7.699,17.197-17.197,17.197Z" fill="#d9eef4"/>
  <g clip-path="url(#clippath)">
    <g>
      <line x1="10.813" y1="4.728" x2="100.252" y2="4.728" fill="none" stroke="#a6d9ec" stroke-miterlimit="9.999" stroke-width="1.164"/>
      <line x1="10.813" y1="8.836" x2="100.252" y2="8.836" fill="none" stroke="#a6d9ec" stroke-miterlimit="9.999" stroke-width="1.164"/>
      <line x1="10.813" y1="12.946" x2="100.252" y2="12.946" fill="none" stroke="#a6d9ec" stroke-miterlimit="9.999" stroke-width="1.164"/>
      <line x1="10.813" y1="17.055" x2="100.252" y2="17.055" fill="none" stroke="#a6d9ec" stroke-miterlimit="9.999" stroke-width="1.164"/>
      <line x1="10.813" y1="21.165" x2="100.252" y2="21.165" fill="none" stroke="#a6d9ec" stroke-miterlimit="9.999" stroke-width="1.164"/>
      <line x1="10.813" y1="25.274" x2="100.252" y2="25.274" fill="none" stroke="#a6d9ec" stroke-miterlimit="9.999" stroke-width="1.164"/>
      <line x1="10.813" y1="29.383" x2="100.252" y2="29.383" fill="none" stroke="#a6d9ec" stroke-miterlimit="9.999" stroke-width="1.164"/>
      <line x1="10.813" y1="33.492" x2="100.252" y2="33.492" fill="none" stroke="#a6d9ec" stroke-miterlimit="9.999" stroke-width="1.164"/>
      <line x1="10.813" y1="37.602" x2="100.252" y2="37.602" fill="none" stroke="#a6d9ec" stroke-miterlimit="9.999" stroke-width="1.164"/>
      <line x1="10.813" y1="41.711" x2="100.252" y2="41.711" fill="none" stroke="#a6d9ec" stroke-miterlimit="9.999" stroke-width="1.164"/>
      <line x1="10.813" y1="45.821" x2="100.252" y2="45.821" fill="none" stroke="#a6d9ec" stroke-miterlimit="9.999" stroke-width="1.164"/>
      <line x1="10.813" y1="49.929" x2="100.252" y2="49.929" fill="none" stroke="#a6d9ec" stroke-miterlimit="9.999" stroke-width="1.164"/>
      <line x1="10.813" y1="54.039" x2="100.252" y2="54.039" fill="none" stroke="#a6d9ec" stroke-miterlimit="9.999" stroke-width="1.164"/>
      <line x1="10.813" y1="58.148" x2="100.252" y2="58.148" fill="none" stroke="#a6d9ec" stroke-miterlimit="9.999" stroke-width="1.164"/>
      <line x1="10.813" y1="62.257" x2="100.252" y2="62.257" fill="none" stroke="#a6d9ec" stroke-miterlimit="9.999" stroke-width="1.164"/>
      <line x1="10.813" y1="66.367" x2="100.252" y2="66.367" fill="none" stroke="#a6d9ec" stroke-miterlimit="9.999" stroke-width="1.164"/>
      <line x1="10.813" y1="70.475" x2="100.252" y2="70.475" fill="none" stroke="#a6d9ec" stroke-miterlimit="9.999" stroke-width="1.164"/>
      <line x1="10.813" y1="74.585" x2="100.252" y2="74.585" fill="none" stroke="#a6d9ec" stroke-miterlimit="9.999" stroke-width="1.164"/>
      <line x1="10.813" y1="78.694" x2="100.252" y2="78.694" fill="none" stroke="#a6d9ec" stroke-miterlimit="9.999" stroke-width="1.164"/>
      <line x1="10.813" y1="82.804" x2="100.252" y2="82.804" fill="none" stroke="#a6d9ec" stroke-miterlimit="9.999" stroke-width="1.164"/>
    </g>
  </g>
</svg>